 http://img19.imageshack.us/img19/8784/vlcsnap2012012114h29m36.png 
http://img210.imageshack.us/img210/2516/vlcsnap2012012114h29m29.png 
http://img267.imageshack.us/img267/6061/vlcsnap2012012114h30m53.png
Genre: Horror | Thriller
Language:English
IMDb: http://www.imdb.com/title/tt1560985/
Source:UnKnOwN Thanks!
Encoder:Tony

Format : AVI
Format/Info : Audio Video Interleave
File size : 633 MiB
Duration : 1h 15mn
Overall bit rate : 1 171 Kbps

Video
ID : 0
Format : MPEG-4 Visual
Format profile : Advanced Simple@L5
Format settings, BVOP : 1
Format settings, QPel : No
Format settings, GMC : No warppoints
Format settings, Matrix : Default (H.263)
Codec ID : XVID
Codec ID/Hint : XviD
Duration : 1h 15mn
Bit rate : 999 Kbps
Width : 640 pixels
Height : 272 pixels
Display aspect ratio : 2.35:1
Frame rate : 29.970 fps
Color space : YUV
Chroma subsampling : 4:2:0
Bit depth : 8 bits
Scan type : Progressive
Compression mode : Lossy
Bits/(Pixel*Frame) : 0.192
Stream size : 540 MiB (85%)
Writing library : XviD 1.2.1 (UTC 2008-12-04)

Audio
ID : 1
Format : AC-3
Format/Info : Audio Coding 3
Mode extension : CM (complete main)
Codec ID : 2000
Duration : 1h 15mn
Bit rate mode : Constant
Bit rate : 160 Kbps
Channel(s) : 2 channels
Channel positions : Front: L R
Sampling rate : 48.0 KHz
Bit depth : 16 bits
Compression mode : Lossy
Stream size : 86.4 MiB (14%)
Alignment : Aligned on interleaves
Interleave, duration : 33 ms (1.00 video frame)
Interleave, preload duration : 512 ms


Plot:
In Italy, a woman becomes involved in a series of unauthorized exorcisms during her mission to discover what happened to her mother, who allegedly murdered three people during her own exorcism.